<?xml version="1.0" encoding="UTF-8" standalone="no"?>
<svg width="196px" height="256px" viewBox="0 0 196 256" version="1.1" xmlns="http://www.w3.org/2000/svg" xmlns:xlink="http://www.w3.org/1999/xlink" xmlns:sketch="http://www.bohemiancoding.com/sketch/ns">
    <!-- Generator: Sketch 3.4.2 (15855) - http://www.bohemiancoding.com/sketch -->
    <title>Logo</title>
    <desc>Created with Sketch.</desc>
    <defs>
        <filter x="-50%" y="-50%" width="200%" height="200%" filterUnits="objectBoundingBox" id="filter-1">
            <feOffset dx="0" dy="2" in="SourceAlpha" result="shadowOffsetOuter1"></feOffset>
            <feGaussianBlur stdDeviation="2" in="shadowOffsetOuter1" result="shadowBlurOuter1"></feGaussianBlur>
            <feColorMatrix values="0 0 0 0 0   0 0 0 0 0   0 0 0 0 0  0 0 0 0.35 0" in="shadowBlurOuter1" type="matrix" result="shadowMatrixOuter1"></feColorMatrix>
            <feMerge>
                <feMergeNode in="shadowMatrixOuter1"></feMergeNode>
                <feMergeNode in="SourceGraphic"></feMergeNode>
            </feMerge>
        </filter>
        <filter x="-50%" y="-50%" width="200%" height="200%" filterUnits="objectBoundingBox" id="filter-2">
            <feOffset dx="3" dy="3" in="SourceAlpha" result="shadowOffsetOuter1"></feOffset>
            <feGaussianBlur stdDeviation="2.5" in="shadowOffsetOuter1" result="shadowBlurOuter1"></feGaussianBlur>
            <feColorMatrix values="0 0 0 0 0   0 0 0 0 0   0 0 0 0 0  0 0 0 0.231 0" in="shadowBlurOuter1" type="matrix" result="shadowMatrixOuter1"></feColorMatrix>
            <feMerge>
                <feMergeNode in="shadowMatrixOuter1"></feMergeNode>
                <feMergeNode in="SourceGraphic"></feMergeNode>
            </feMerge>
        </filter>
    </defs>
    <g id="Page-1" stroke="none" stroke-width="1" fill="none" fill-rule="evenodd" sketch:type="MSPage">
        <g id="Desktop-HD" sketch:type="MSArtboardGroup" transform="translate(-623.000000, -247.000000)">
            <g id="Logo" sketch:type="MSLayerGroup" transform="translate(626.000000, 249.000000)">
                <path d="M46.7079455,235.833451 C39.8520874,250.65926 15.7759084,252.949425 5.34817041,242.778489 C-4.08298461,233.825591 0.275088537,213.55826 8.27622609,203.675973 C11.7041551,199.520687 15.7759084,196.727763 19.8492436,195.366986 C25.0631126,193.432082 30.2057971,193.649362 34.0639968,195.652464 C37.4223233,197.371674 39.8520874,200.380292 40.3503789,204.676731 C40.7790678,208.475171 39.7081366,213.272782 36.4225765,218.78726 L30.6344859,209.477515 C31.706999,207.758304 33.1354346,206.037508 33.0642501,203.958279 C32.9930656,201.669699 31.4206791,200.521445 29.2772348,200.521445 C26.920237,200.521445 24.0633658,201.885394 20.9913593,204.535578 C13.2765416,211.624941 7.63398373,227.670375 13.0614062,236.547145 C18.4919925,245.503215 36.920868,247.292209 43.2800165,235.833451 L46.7079455,235.833451 Z" id="Fill-1" fill="#FFFFFF" sketch:type="MSShapeGroup"></path>
                <path d="M64.5619667,218.644838 C60.2054754,210.694284 51.775649,218.427558 49.2747003,230.032227 C46.56178,242.994501 51.2757757,249.727017 61.1340377,236.404724 L64.5619667,218.644838 Z M83.9225682,235.614902 C78.9934372,248.797628 61.8490464,253.449329 60.9204842,241.134138 C53.3480355,252.446985 37.0594405,250.372513 38.3455071,235.545118 C39.3452538,224.016577 44.9878117,212.484864 57.7757112,212.056647 L75.8486643,212.056647 L75.2776064,214.776615 C73.0645595,225.735787 71.5633575,232.108284 69.9213684,240.345902 C68.348982,248.508978 78.7783019,242.349004 81.1352997,235.614902 L83.9225682,235.614902 Z" id="Fill-3" fill="#FFFFFF" sketch:type="MSShapeGroup"></path>
                <path d="M101.563036,219.575654 C100.348154,216.781145 97.6352335,215.276043 93.9905872,217.068208 L88.9902717,241.850845 C97.4200981,248.366081 101.778171,235.045374 102.491598,228.09875 C102.849103,224.660329 102.491598,221.436017 101.563036,219.575654 M109.850493,232.466559 C105.77874,246.504132 98.9909027,247.863323 89.8476495,247.863323 L82.3463853,247.863323 L78.2034475,247.863323 L88.275263,197.731852 L97.706418,197.731852 L94.705596,212.985877 C96.4203514,212.199227 98.2062914,211.696469 100.1346,211.696469 C103.277791,211.696469 105.634789,212.627444 107.349545,214.05959 C108.920349,215.348998 109.850493,217.212533 110.635105,219.361546 C111.636433,223.155227 111.350113,227.884641 109.850493,232.466559" id="Fill-5" fill="#FFFFFF" sketch:type="MSShapeGroup"></path>
                <path d="M133.777501,219.575654 C132.564201,216.781145 129.849699,215.276043 126.205053,217.068208 L121.204737,241.850845 C129.636145,248.366081 133.992637,235.045374 134.707645,228.09875 C135.06515,224.660329 134.707645,221.436017 133.777501,219.575654 M142.064959,232.466559 C137.993205,246.504132 131.20695,247.863323 122.063697,247.863323 L114.562433,247.863323 L110.417913,247.863323 L120.49131,197.731852 L129.920883,197.731852 L126.920061,212.985877 C128.634817,212.199227 130.420757,211.696469 132.349066,211.696469 C135.493839,211.696469 137.849255,212.627444 139.565592,214.05959 C141.136397,215.348998 142.064959,217.212533 142.851152,219.361546 C143.850899,223.155227 143.566161,227.884641 142.064959,232.466559" id="Fill-7" fill="#FFFFFF" sketch:type="MSShapeGroup"></path>
                <path d="M153.419677,206.467945 C152.41993,205.394232 151.920057,204.10641 151.920057,202.458569 C151.991241,200.882098 152.491115,199.591104 153.563628,198.446022 C154.705744,197.372308 155.99181,196.798181 157.635381,196.798181 C159.27737,196.798181 160.492252,197.372308 161.564766,198.446022 C162.706881,199.591104 163.277939,200.882098 163.277939,202.458569 C163.277939,204.10641 162.635697,205.394232 161.493581,206.467945 C160.349883,207.543245 158.992632,208.044417 157.420246,208.044417 C155.847859,208.044417 154.49219,207.543245 153.419677,206.467945 L153.419677,206.467945 Z M169.637088,235.187003 C163.992948,250.658308 142.419299,254.810423 146.419868,234.758786 L151.133864,212.055378 L160.992126,212.055378 C158.706312,224.158047 157.064323,231.537646 155.420752,239.9862 C153.778763,248.580665 164.421637,242.204996 166.849819,235.187003 L169.637088,235.187003 Z" id="Fill-9" fill="#FFFFFF" sketch:type="MSShapeGroup"></path>
                <path d="M188.778757,235.331645 C183.063433,250.658625 161.989658,254.739371 165.990227,235.044581 L169.77566,216.423504 L165.490353,216.423504 L167.276293,212.055696 L170.705804,212.055696 L172.634113,202.744364 L182.778695,200.736504 L180.564066,212.055696 L186.348993,212.055696 L184.278315,216.423504 L179.777873,216.423504 L174.991111,240.202211 C173.34754,248.580982 183.492122,242.349638 185.920304,235.331645 L188.778757,235.331645 Z" id="Fill-11" fill="#FFFFFF" sketch:type="MSShapeGroup"></path>
                <path d="M92.1374175,0.768252229 C52.6822231,0.768252229 20.6982373,32.5783987 20.6982373,71.8188955 C20.6982373,116.81494 80.2306238,173.655138 92.1374175,173.655138 C104.042629,173.655138 163.576598,116.81494 163.576598,71.8188955 C163.576598,32.5783987 131.592612,0.768252229 92.1374175,0.768252229 Z M92.4278502,17.7602025 C61.2854234,17.7602025 36.0386548,43.0709732 36.0386548,74.2943045 C36.0386548,105.517636 61.2854234,130.831578 92.4278502,130.831578 C123.571859,130.831578 148.817046,105.517636 148.817046,74.2943045 C148.817046,43.0709732 123.571859,17.7602025 92.4278502,17.7602025 Z" id="Fill-14" fill="#00897B" filter="url(#filter-1)" sketch:type="MSShapeGroup"></path>
                <path d="M74.3585258,64.1924426 C81.9861238,61.2194958 92.7894675,64.9122382 92.7894675,64.9122382 C103.302627,68.6139325 104.713662,64.9122382 104.713662,64.9122382 C112.95999,52.1069771 107.254157,54.6667605 107.254157,54.6667605 C94.1973386,62.0653911 85.9652469,52.9602382 85.9652469,52.9602382 C84.5431389,51.7073083 90.505236,49.8279134 90.505236,49.8279134 C85.1141967,47.5536076 87.1010352,45.5600217 87.1010352,45.5600217 C122.297815,43.2825439 131.948851,62.3524548 131.948851,62.3524548 C132.235171,68.8978242 118.607294,69.1833019 118.607294,69.1833019 C110.655195,72.5979325 118.607294,79.9965631 118.607294,79.9965631 C129.104634,77.1513019 135.845016,88.1263338 135.845016,88.1263338 C137.754342,93.9802127 133.086221,91.6614994 133.086221,91.6614994 C127.122542,86.2580408 121.731502,87.3951936 121.731502,87.3951936 C106.686263,91.950149 95.901021,84.5499325 95.901021,84.5499325 C87.1010352,78.006149 81.993152,79.9965631 81.993152,79.9965631 C78.3010493,87.9645631 62.1200221,89.3887796 62.1200221,89.3887796 C53.6047742,103.047302 49.3479413,98.2211427 49.3479413,98.2211427 C47.0779467,97.6660471 55.5916127,88.2484548 55.5916127,88.2484548 C57.0121389,81.7014994 58.7126574,81.1353019 58.7126574,81.1353019 C68.0805373,79.4271936 67.5126432,72.036493 67.5126432,72.036493 C67.6371005,71.5469528 67.7819523,71.0823427 67.9456801,70.6415377 C66.3455412,69.9328282 65.1806557,68.3807617 65.0540889,66.5093274 C64.870591,63.821079 66.8953945,61.4944357 69.5766773,61.3088752 C71.672214,61.1638517 73.55035,62.3731198 74.3585258,64.1924426 Z" id="Fill-18" fill="#FFFFFF" filter="url(#filter-2)" sketch:type="MSShapeGroup"></path>
            </g>
        </g>
    </g>
</svg>