<?xml version="1.0" encoding="UTF-8" standalone="no"?>
<svg width="16px" height="16px" viewBox="0 0 16 16" version="1.1" xmlns="http://www.w3.org/2000/svg" xmlns:xlink="http://www.w3.org/1999/xlink">
    <!-- Generator: Sketch 3.6.1 (26313) - http://www.bohemiancoding.com/sketch -->
    <title>icon-facebook</title>
    <desc>Created with Sketch.</desc>
    <defs></defs>
    <g id="Page-1" stroke="none" stroke-width="1" fill="none" fill-rule="evenodd">
        <g id="FB-fLogo-online-broadcast" transform="translate(-845.000000, -492.000000)" fill="#FFFFFF">
            <g id="g10" transform="translate(683.000000, 334.166670) scale(1, -1) translate(-683.000000, -334.166670) translate(0.000000, 0.666670)">
                <g id="g36">
                    <g id="g38-Clipped">
                        <g id="icon-facebook" transform="translate(845.333312, 159.999996)">
                            <g id="g44" transform="translate(0.039970, 0.025035)">
                                <path d="M14.1078067,14.9440299 L0.867992565,14.9440299 C0.414312268,14.9440299 0.0466171004,14.5749627 0.0466171004,14.1195896 L0.0466171004,0.830373134 C0.0466171004,0.37505597 0.414312268,0.00587686567 0.867992565,0.00587686567 L7.99589219,0.00587686567 L7.99589219,5.79072761 L6.05637546,5.79072761 L6.05637546,8.04520522 L7.99589219,8.04520522 L7.99589219,9.70779851 C7.99589219,11.6372015 9.16990706,12.6878172 10.8847026,12.6878172 C11.7061338,12.6878172 12.4120818,12.6264739 12.6177881,12.5990485 L12.6177881,10.5826679 L11.4284944,10.5821082 C10.4959294,10.5821082 10.315316,10.1373134 10.315316,9.48458955 L10.315316,8.04520522 L12.5394981,8.04520522 L12.2499257,5.79072761 L10.315316,5.79072761 L10.315316,0.00587686567 L14.1078067,0.00587686567 C14.5614312,0.00587686567 14.9291822,0.37505597 14.9291822,0.830373134 L14.9291822,14.1195896 C14.9291822,14.5749627 14.5614312,14.9440299 14.1078067,14.9440299" id="path46"></path>
                            </g>
                        </g>
                    </g>
                </g>
            </g>
        </g>
    </g>
</svg>