<?xml version="1.0" encoding="UTF-8" standalone="no"?>
<svg width="15px" height="15px" viewBox="0 0 15 15" version="1.1" xmlns="http://www.w3.org/2000/svg" xmlns:xlink="http://www.w3.org/1999/xlink">
    <!-- Generator: Sketch 3.6.1 (26313) - http://www.bohemiancoding.com/sketch -->
    <title>icon-instagram</title>
    <desc>Created with Sketch.</desc>
    <defs>
        <path id="path-1" d="M0,14.996875 L15,14.996875 L15,0 L0,0 L0,14.996875 L0,14.996875 Z"></path>
    </defs>
    <g id="Page-1" stroke="none" stroke-width="1" fill="none" fill-rule="evenodd">
        <g id="icon-instagram">
            <mask id="mask-2" fill="white">
                <use xlink:href="#path-1"></use>
            </mask>
            <g id="Clip-2"></g>
            <path d="M13.3333333,4.16666667 C13.3333333,4.39677083 13.1467708,4.58333333 12.9166667,4.58333333 L10.8333333,4.58333333 C10.6032292,4.58333333 10.4166667,4.39677083 10.4166667,4.16666667 L10.4166667,2.08333333 C10.4166667,1.85322917 10.6032292,1.66666667 10.8333333,1.66666667 L12.9166667,1.66666667 C13.1467708,1.66666667 13.3333333,1.85322917 13.3333333,2.08333333 L13.3333333,4.16666667 L13.3333333,4.16666667 Z M13.3333333,12.9166667 C13.3333333,13.1467708 13.1467708,13.3333333 12.9166667,13.3333333 L2.08333333,13.3333333 C1.85322917,13.3333333 1.66666667,13.1467708 1.66666667,12.9166667 L1.66666667,6.25 L3.08927083,6.25 C2.976875,6.64734375 2.91666667,7.06666667 2.91666667,7.5 C2.91666667,10.0313021 4.96869792,12.0833333 7.5,12.0833333 C10.0313021,12.0833333 12.0833333,10.0313021 12.0833333,7.5 C12.0833333,7.06666667 12.023125,6.64734375 11.9107292,6.25 L13.3333333,6.25 L13.3333333,12.9166667 L13.3333333,12.9166667 Z M7.5,4.58333333 C9.11083333,4.58333333 10.4166667,5.88916667 10.4166667,7.5 C10.4166667,9.11083333 9.11083333,10.4166667 7.5,10.4166667 C5.88916667,10.4166667 4.58333333,9.11083333 4.58333333,7.5 C4.58333333,5.88916667 5.88916667,4.58333333 7.5,4.58333333 L7.5,4.58333333 Z M12.9166667,0 L2.08333333,0 C0.932760417,0 0,0.932760417 0,2.08333333 L0,12.9166667 C0,14.0672396 0.932760417,15 2.08333333,15 L12.9166667,15 C14.0672396,15 15,14.0672396 15,12.9166667 L15,2.08333333 C15,0.932760417 14.0672396,0 12.9166667,0 L12.9166667,0 Z" id="Fill-1" fill="#0A0A08" mask="url(#mask-2)"></path>
        </g>
    </g>
</svg>